<?xml version="1.0" standalone="no"?>
<!DOCTYPE svg PUBLIC "-//W3C//DTD SVG 20010904//EN"
 "http://www.w3.org/TR/2001/REC-SVG-20010904/DTD/svg10.dtd">
<svg version="1.0" xmlns="http://www.w3.org/2000/svg"
 width="96.000000pt" height="96.000000pt" viewBox="0 0 96.000000 96.000000"
 preserveAspectRatio="xMidYMid meet">
<metadata>
Created by potrace 1.11, written by Peter Selinger 2001-2013
</metadata>
<g transform="translate(0.000000,96.000000) scale(0.100000,-0.100000)"
fill="#000000" stroke="none">
<path d="M454 908 c-5 -7 -9 -49 -10 -93 -1 -44 -4 -93 -7 -110 -17 -95 -21
-121 -19 -128 1 -4 -2 -26 -7 -50 -5 -23 -12 -64 -15 -92 -4 -27 -9 -66 -13
-85 -5 -31 -7 -32 -14 -12 -12 33 -48 29 -62 -8 l-11 -30 -98 0 -98 0 0 160
c0 153 -1 160 -20 160 -19 0 -20 -7 -20 -240 0 -233 1 -240 20 -240 11 0 20 7
20 15 0 8 1 15 3 15 1 0 44 -11 96 -24 51 -14 100 -22 107 -19 11 4 14 -6 14
-41 0 -39 3 -46 20 -46 17 0 20 7 20 50 0 28 5 50 10 50 6 0 10 -10 10 -21 0
-38 37 -59 102 -59 63 0 98 21 98 60 0 11 5 20 10 20 6 0 10 -22 10 -50 0 -43
3 -50 20 -50 17 0 20 7 20 53 0 31 4 47 9 39 6 -11 24 -9 92 8 46 11 92 23
102 26 11 4 17 0 17 -10 0 -9 9 -16 20 -16 19 0 20 7 20 240 0 233 -1 240 -20
240 -19 0 -20 -7 -20 -160 l0 -160 -98 0 -98 0 -11 30 c-13 34 -46 41 -62 13
-11 -21 -14 -12 -31 117 -6 47 -15 108 -20 135 -16 87 -22 148 -24 226 -2 41
-6 81 -10 87 -9 16 -43 15 -52 0z"/>
</g>
</svg>
